<svg id="Layer_1" data-name="Layer 1" xmlns="http://www.w3.org/2000/svg" viewBox="0 0 350 75"><defs><style>.cls-1{fill:#00477b;}</style></defs><path class="cls-1" d="M80.38,2.42h24.23q8,0,12.74,2.12a15,15,0,0,1,7,5.77,15.5,15.5,0,0,1,2.22,8.23,9.93,9.93,0,0,1-2,6.38,12,12,0,0,1-4.79,3.68,18.41,18.41,0,0,1-5.65,1.48v.24a19.7,19.7,0,0,1,4.75.86,17,17,0,0,1,4.88,2.42,13.18,13.18,0,0,1,3.8,4.21,12.37,12.37,0,0,1,1.49,6.26,15.92,15.92,0,0,1-2.17,8.19,14.78,14.78,0,0,1-7.37,5.85q-5.2,2.16-14.15,2.17h-25Zm24,23.73q5.05,0,7.59-1.76t2.53-5.61a8.72,8.72,0,0,0-.72-3.68,5,5,0,0,0-2.85-2.41,17.43,17.43,0,0,0-6.28-.86H92.85V26.15Zm1,24.72a24.42,24.42,0,0,0,7.46-.86,5.34,5.34,0,0,0,3.3-2.58,9.77,9.77,0,0,0,.81-4.18,6.65,6.65,0,0,0-2.66-5.56c-1.78-1.36-4.6-2-8.46-2H92.85V50.87Z"/><path class="cls-1" d="M134.26,1.43h12.66v11.3H134.26ZM146.65,17.8V60.28H134.53V17.8Z"/><path class="cls-1" d="M167.35,60.28H155.24V17.8h12.11l-.09,5a12.74,12.74,0,0,1,5-4.41,16.62,16.62,0,0,1,7.24-1.4q8,0,12.79,4t4.84,13.26v26H185V34.17q0-4.58-2-6.59c-1.36-1.33-3.39-2-6.11-2q-4.78,0-7.14,2.29t-2.35,7.45Z"/><path class="cls-1" d="M249,60.28h-7.05a8.28,8.28,0,0,1-6.46-2.54,9.73,9.73,0,0,1-2.49-6.3h2.62a14.52,14.52,0,0,1-5.56,7.08,17.24,17.24,0,0,1-9.81,2.58,25.76,25.76,0,0,1-8.9-1.44,13.45,13.45,0,0,1-6.2-4.33,11.76,11.76,0,0,1-2.26-7.41,11.93,11.93,0,0,1,1.77-6.75A12.08,12.08,0,0,1,209.3,37,22.75,22.75,0,0,1,215.63,35a38.43,38.43,0,0,1,6.78-.62H233V32a6.56,6.56,0,0,0-1.85-5.11c-1.24-1.12-3.21-1.68-5.93-1.68q-4.34,0-6.14,1.39a6.35,6.35,0,0,0-2.26,4.25H204.69a11.75,11.75,0,0,1,3.17-7.52,18,18,0,0,1,7.5-4.71A30.88,30.88,0,0,1,225.49,17a32.73,32.73,0,0,1,6.32.66A20.21,20.21,0,0,1,238.1,20a14.09,14.09,0,0,1,4.84,4.75,14.65,14.65,0,0,1,1.89,7.85V51.68H249ZM214.64,47.43a4.94,4.94,0,0,0,1.71,4.13q1.72,1.35,5.52,1.35c3.55,0,6.3-.78,8.23-2.33A7.74,7.74,0,0,0,233,44.24V41.78H222.5c-2.77,0-4.78.48-6,1.43A5,5,0,0,0,214.64,47.43Z"/><path class="cls-1" d="M265.81,60.28H253.69V17.8h12.12l-.09,5.81a12.7,12.7,0,0,1,5-4.42,16.76,16.76,0,0,1,7.23-1.39h3.44v8.6H275.3q-4.79,0-7.14,2.29c-1.57,1.52-2.35,4-2.35,7.44Z"/><path class="cls-1" d="M293.29,17.8l10,28a36.25,36.25,0,0,0,1.58,3.85A2.35,2.35,0,0,0,307,51.19h6.87v8.6h-8.77a14.27,14.27,0,0,1-5.43-.9A8.62,8.62,0,0,1,296,55.73a28.23,28.23,0,0,1-3.12-6.42L281.27,17.8Zm25.23,0H330L314.09,66.17q-2,6-6,8.31a19,19,0,0,1-9.63,2.33h-9.14V68.22h7.6a8.58,8.58,0,0,0,4.75-1.07,7.24,7.24,0,0,0,2.48-4.09Z"/><rect class="cls-1" x="54.44" y="0.99" width="11.05" height="59.19"/><ellipse class="cls-1" cx="34.1" cy="48.17" rx="11.82" ry="12.44" transform="translate(-14.31 81.92) rotate(-89.59)"/><rect class="cls-1" x="21.61" y="0.54" width="43.88" height="10.34"/></svg>